PathFileType	4	(X/Y/Z)	outputs\dynamic_markers.trc
DataRate	CameraRate	NumFrames	NumMarkers	Units	OrigDataRate	OrigDataStartFrame	OrigNumFrames
360.000000	360.000000	4	48	m	360.000000	585	669
Frame#	Time	C7			CLAV			LANK			LASI			LBAK			LBHD			LELB			LFHD			LFIN			LFRM			LHEE			LIC			LKNE			LMANK			LMELB			LMKNE			LPSI			LSHO			LTHI			LTIB			LTOE			LUPA			LWRA			LWRB			RANK			RASI			RBAK			RBHD			RELB			RFHD			RFIN			RFRM			RHEE			RIC			RKNE			RMANK			RMELB			RMKNE			RPSI			RSHO			RTHI			RTIB			RTOE			RUPA			RWRA			RWRB			STRN			T10			
		X1	Y1	Z1	X2	Y2	Z2	X3	Y3	Z3	X4	Y4	Z4	X5	Y5	Z5	X6	Y6	Z6	X7	Y7	Z7	X8	Y8	Z8	X9	Y9	Z9	X10	Y10	Z10	X11	Y11	Z11	X12	Y12	Z12	X13	Y13	Z13	X14	Y14	Z14	X15	Y15	Z15	X16	Y16	Z16	X17	Y17	Z17	X18	Y18	Z18	X19	Y19	Z19	X20	Y20	Z20	X21	Y21	Z21	X22	Y22	Z22	X23	Y23	Z23	X24	Y24	Z24	X25	Y25	Z25	X26	Y26	Z26	X27	Y27	Z27	X28	Y28	Z28	X29	Y29	Z29	X30	Y30	Z30	X31	Y31	Z31	X32	Y32	Z32	X33	Y33	Z33	X34	Y34	Z34	X35	Y35	Z35	X36	Y36	Z36	X37	Y37	Z37	X38	Y38	Z38	X39	Y39	Z39	X40	Y40	Z40	X41	Y41	Z41	X42	Y42	Z42	X43	Y43	Z43	X44	Y44	Z44	X45	Y45	Z45	X46	Y46	Z46	X47	Y47	Z47	X48	Y48	Z48	

586	1.625	1.358330488204956	1.23923122882843	0.6573742628097534	1.478101849555969	1.121652126312256	0.6609219908714294	0.5169015526771545	0.2379016429185867	0.2078771144151688	1.320093870162964	0.7735524773597717	0.3658489584922791	1.323659181594849	1.163424968719482	0.4687027633190155	1.371538877487183	1.356757521629333	0.6597716212272644	1.67146635055542	1.434802412986755	0.2847977876663208	1.477014899253845	1.422419428825378	0.714424192905426	2.007856369018555	1.437621116638184	0.2044637948274612	1.808306574821472	1.445926547050476	0.2840522825717926	0.5555114150047302	0.2860625982284546	0.2792444825172424	1.313555002212524	0.8531891107559204	0.3249729573726654	1.023680448532104	0.2937289774417877	0.193516418337822	0.5479083061218262	0.1919978857040405	0.3077118098735809	1.645968317985535	1.372696161270142	0.2295355051755905	1.015482306480408	0.2478308975696564	0.3115273714065552	1.141483426094055	0.8764128684997559	0.3654437959194183	1.494049310684204	1.278675079345703	0.5233888626098633	1.088947415351868	0.4605771601200104	0.2033142149448395	0.8961405158042908	0.2657263875007629	0.172051876783371	0.4661095142364502	0.04842735826969147	0.2037671208381653	1.578884720802307	1.349025726318359	0.4109822809696198	1.934934735298157	1.414631724357605	0.2374652922153473	1.912868857383728	1.489418029785156	0.2006568610668182	1.633302927017212	-0.01642879471182823	0.5460256338119507	1.220748424530029	0.766932487487793	0.597000777721405	1.22061026096344	1.081798076629639	0.6244445443153381	1.338983058929443	1.279712319374084	0.7916515469551086	1.276178479194641	0.7183718681335449	0.840670108795166	1.449550747871399	1.357249021530151	0.8539251685142517	1.647998332977295	0.8288078308105469	0.7954496145248413	1.437087297439575	0.7468135952949524	0.8640621304512024	1.541609883308411	-0.004358202219009399	0.5051723718643188	1.140552401542664	0.8518329262733459	0.6186406016349792	1.481436491012573	0.4186032712459564	0.5852781534194946	1.623217940330505	-0.0321822501718998	0.4358676671981812	1.280585765838623	0.6995499730110168	0.7561886310577393	1.469701528549194	0.4361062049865723	0.4522010982036591	1.100518226623535	0.8767036199569702	0.4524889290332794	1.349927663803101	1.084298253059387	0.8065038919448853	1.28283166885376	0.591164767742157	0.6284739375114441	1.555088400840759	0.2738429307937622	0.5857170224189758	1.813770174980164	-0.03772129490971565	0.4694413840770721	1.303460955619812	0.8904724717140198	0.8413321375846863	1.528180480003357	0.7930462956428528	0.8263694643974304	1.548649191856384	0.7186335921287537	0.8062795400619507	1.476768374443054	0.9402494430541992	0.6011478900909424	1.252097606658936	1.078846216201782	0.5049891471862793	
587	1.627777777777778	1.362214326858521	1.240268349647522	0.6580806374549866	1.481351256370544	1.120986461639404	0.661112368106842	0.520499050617218	0.2388518452644348	0.2068179398775101	1.319995880126953	0.7755845785140991	0.3652511835098267	1.326056838035583	1.164887428283691	0.4691277146339417	1.378000855445862	1.358562827110291	0.6616261601448059	1.69304883480072	1.430944919586182	0.2971969544887543	1.484140396118164	1.421911001205444	0.7167515754699707	2.030527114868164	1.415001511573792	0.2295390516519547	1.828973770141602	1.431846261024475	0.3010162711143494	0.5582050681114197	0.2868836522102356	0.2787221074104309	1.313763856887817	0.8543963432312012	0.323456734418869	1.027198076248169	0.2958115935325623	0.192243754863739	0.55124831199646	0.1926907747983932	0.3067055344581604	1.666108846664429	1.371628165245056	0.2391388416290283	1.02051055431366	0.2492286860942841	0.3101902008056641	1.141929268836975	0.8788236379623413	0.3642234206199646	1.501757740974426	1.278009057044983	0.5263152718544006	1.090947508811951	0.4626132845878601	0.2022770792245865	0.8999777436256409	0.2676045596599579	0.1708322614431381	0.4714504778385162	0.04897915571928024	0.2012275457382202	1.596638917922974	1.345091819763184	0.4214823842048645	1.957473039627075	1.394439578056335	0.2579897046089172	1.938662052154541	1.471886992454529	0.223546490073204	1.633260130882263	-0.01644612662494183	0.5462357401847839	1.220581531524658	0.7697460651397705	0.5964460968971252	1.223089456558228	1.084706425666809	0.6254369020462036	1.344099164009094	1.280398845672607	0.7927124500274658	1.272698640823364	0.7202316522598267	0.8378272652626038	1.456638693809509	1.354761838912964	0.8553034067153931	1.646051406860352	0.8277069330215454	0.7982116937637329	1.433282017707825	0.7467714548110962	0.8635297417640686	1.541493892669678	-0.004414231982082129	0.5054129362106323	1.141102910041809	0.854948878288269	0.6179438233375549	1.478825330734253	0.4183802008628845	0.5854235887527466	1.623202085494995	-0.03191504627466202	0.4360615015029907	1.277731418609619	0.7019649744033813	0.7530950307846069	1.466363310813904	0.4352451264858246	0.4519127607345581	1.100990772247314	0.8793393969535828	0.451585054397583	1.353241205215454	1.084949135780334	0.8060075640678406	1.281113266944885	0.5930973291397095	0.6282567977905273	1.55319881439209	0.2736281454563141	0.5857377648353577	1.81368625164032	-0.03766032308340073	0.4695607423782349	1.303962707519531	0.891405463218689	0.8401182293891907	1.525565147399902	0.7925148010253906	0.8275624513626099	1.54559314250946	0.7181480526924133	0.8062400817871094	1.477120399475098	0.9390085339546204	0.5997623205184937	1.253876924514771	1.081285238265991	0.5048305988311768	
588	1.630555555555556	1.367795944213867	1.24171769618988	0.6591525673866272	1.486176013946533	1.119876384735107	0.6610857248306274	0.5256587862968445	0.2402511090040207	0.2052403390407562	1.319967269897461	0.7788198590278625	0.3642913401126862	1.32967209815979	1.167140960693359	0.4698934555053711	1.386589765548706	1.361242771148682	0.6646486520767212	1.723695397377014	1.423160076141357	0.3168189525604248	1.494716882705688	1.420989274978638	0.7197086215019226	2.060241937637329	1.382071018218994	0.2671932876110077	1.858267545700073	1.41060745716095	0.3259274363517761	0.5621032118797302	0.2881788611412048	0.2778964638710022	1.314272165298462	0.8560653924942017	0.3211401998996735	1.032280087471008	0.2989757359027863	0.1904025673866272	0.5560581088066101	0.1938261538743973	0.3052675426006317	1.695568561553955	1.368580102920532	0.2553582191467285	1.027638673782349	0.2517440915107727	0.3083371222019196	1.142680644989014	0.8825559616088867	0.3623557984828949	1.513758182525635	1.276856184005737	0.5310305953025818	1.093847155570984	0.465680330991745	0.2007606625556946	0.90545654296875	0.2704795300960541	0.1691212058067322	0.4792054891586304	0.04983163997530937	0.197668045759201	1.619611501693726	1.336475491523743	0.4389539361000061	1.985944151878357	1.364243984222412	0.2834876775741577	1.973704218864441	1.445768594741821	0.2573006749153137	1.633141398429871	-0.01645757257938385	0.5465073585510254	1.220600485801697	0.7740421295166016	0.5956499576568604	1.226517200469971	1.089180707931519	0.6269344091415405	1.351728558540344	1.281858444213867	0.7946760654449463	1.267486333847046	0.7231216430664062	0.8336334824562073	1.467366456985474	1.351407766342163	0.8570869565010071	1.643037915229797	0.8257669806480408	0.8020945191383362	1.427616834640503	0.7468207478523254	0.8626049757003784	1.541333794593811	-0.00450574466958642	0.5056965947151184	1.141978979110718	0.8595805764198303	0.6170117855072021	1.475194931030273	0.4180250763893127	0.5852136015892029	1.623150110244751	-0.03160093724727631	0.4363468289375305	1.273655891418457	0.7056671977043152	0.7485936880111694	1.461459159851074	0.4340930879116058	0.4513757824897766	1.101782083511353	0.8833801746368408	0.4502318203449249	1.358069777488708	1.085912704467773	0.8052056431770325	1.27867329120636	0.5960060954093933	0.627860426902771	1.550340890884399	0.2733612358570099	0.5857301950454712	1.813546061515808	-0.03756983205676079	0.4697075486183167	1.304820537567139	0.8927664160728455	0.8380951881408691	1.521585464477539	0.7918100357055664	0.8292413949966431	1.540851831436157	0.7175590991973877	0.8062194585800171	1.477732300758362	0.9378052949905396	0.5971853733062744	1.256044507026672	1.08484935760498	0.5045536160469055	
589	1.633333333333333	1.373565196990967	1.243224024772644	0.6601001620292664	1.490833640098572	1.118772387504578	0.6606845855712891	0.5305541753768921	0.2416180372238159	0.2038735747337341	1.320051193237305	0.7821041345596313	0.363305389881134	1.333606362342834	1.169326186180115	0.4708711504936218	1.394147753715515	1.363858461380005	0.6676068902015686	1.752404928207397	1.412298321723938	0.3380804657936096	1.505126953125	1.419913291931152	0.7218022346496582	2.085194826126099	1.350514531135559	0.3028959333896637	1.88530969619751	1.389692306518555	0.3502217531204224	0.5657584667205811	0.289582371711731	0.2770768702030182	1.315187215805054	0.8579291701316833	0.3186109662055969	1.037068367004395	0.3021482825279236	0.1886638998985291	0.5605791211128235	0.1950431317090988	0.3038761913776398	1.724058270454407	1.362960934638977	0.2737588584423065	1.03406298160553	0.2547646164894104	0.306725025177002	1.143426656723022	0.8864879012107849	0.3606731593608856	1.526496648788452	1.274449110031128	0.536585807800293	1.096277356147766	0.4688862264156342	0.1991485059261322	0.9107673764228821	0.2734084725379944	0.1675060242414474	0.4865502417087555	0.05069619417190552	0.1946998238563538	1.637519121170044	1.325914263725281	0.4569602608680725	2.008543252944946	1.335808873176575	0.3040817081928253	2.005237340927124	1.420478940010071	0.2897262275218964	1.633132576942444	-0.01631216891109943	0.5468183159828186	1.221121311187744	0.7783213257789612	0.5948082208633423	1.22978138923645	1.093721151351929	0.628380298614502	1.359598278999329	1.283675670623779	0.7969046831130981	1.262081861495972	0.7263882756233215	0.8293765783309937	1.478250741958618	1.348400712013245	0.8585690855979919	1.63983678817749	0.8237302899360657	0.8056231141090393	1.421961069107056	0.7469453811645508	0.8615163564682007	1.541152596473694	-0.004600605927407742	0.5059648752212524	1.143196821212769	0.8639893531799316	0.6160975098609924	1.471830010414124	0.4180172681808472	0.5848706364631653	1.623053431510925	-0.03135310113430023	0.4365889430046082	1.269535064697266	0.7095299959182739	0.7442024350166321	1.456784248352051	0.4332056045532227	0.4506968259811401	1.102803468704224	0.887503445148468	0.4487457573413849	1.362958192825317	1.086818099021912	0.8044083714485168	1.276662707328796	0.5986599922180176	0.6273497343063354	1.54764997959137	0.2730900943279266	0.5856832265853882	1.813407182693481	-0.03749443963170052	0.4698102176189423	1.305570483207703	0.8941826820373535	0.8359017372131348	1.517591238021851	0.7910161018371582	0.8306905031204224	1.53592586517334	0.7169076800346375	0.8060266971588135	1.478495597839355	0.9371622800827026	0.5939289927482605	1.258133172988892	1.088056325912476	0.504288911819458	
